<svg xmlns="http://www.w3.org/2000/svg" xmlns:xlink="http://www.w3.org/1999/xlink" width="52px" height="52px" viewBox="0 0 52 52" version="1.1"><title>Aerial Work Platforms</title><g id="Icons/Catalog/Regular/Aerial-Equipment" stroke="none" stroke-width="1" fill="currentColor" fill-rule="evenodd"><path d="M21.3689659,35.9022293 L34.4935512,35.9022293 L27.9323805,33.6314 L21.3689659,35.9022293 Z M27.9323805,31.2551073 L37.4229659,27.9711561 L27.9323805,24.6860829 L18.4406732,27.9711561 L27.9323805,31.2551073 Z M27.9323805,22.3120341 L34.3914537,20.0759854 L21.4710634,20.0759854 L27.9323805,22.3120341 Z M14.6989659,15.6240829 L27.4420878,15.6240829 L27.4420878,12.426522 L14.6989659,12.426522 L14.6989659,15.6240829 Z M14.6989659,11.3606683 L27.4420878,11.3606683 L27.4420878,8.16422927 L14.6989659,8.16422927 L14.6989659,11.3606683 Z M14.6989659,7.09837561 L27.4420878,7.09837561 L27.4420878,3.90081463 L14.6989659,3.90081463 L14.6989659,7.09837561 Z M28.402478,15.6240829 L41.1657951,15.6240829 L41.1657951,12.426522 L28.402478,12.426522 L28.402478,15.6240829 Z M28.402478,11.3606683 L41.1657951,11.3606683 L41.1657951,8.16422927 L28.402478,8.16422927 L28.402478,11.3606683 Z M28.402478,7.09837561 L41.1657951,7.09837561 L41.1657951,3.90081463 L28.402478,3.90081463 L28.402478,7.09837561 Z M42.2338927,36.2332049 L42.2338927,39.3780341 C41.5315512,39.0201317 40.7461854,38.7991073 39.904722,38.7991073 C37.0471122,38.7991073 34.729161,41.1148146 34.729161,43.9724244 L21.2320878,43.9724244 C21.2320878,41.1148146 18.9141366,38.7991073 16.0576488,38.7991073 C15.1522341,38.7991073 14.3141366,39.0526683 13.5736488,39.4610585 L13.5736488,36.2332049 C13.5736488,36.0503268 13.7217463,35.9022293 13.9046244,35.9022293 L14.5059902,35.9022293 L24.5003317,32.4432537 L15.6425268,29.3803268 L14.8010634,27.9778878 L15.6470146,26.5631073 L24.5003317,23.4990585 L14.6080878,20.0759854 L14.0583317,20.0759854 C13.8732098,20.0759854 13.7228683,19.924522 13.7228683,19.7394 L13.7228683,3.33647317 C13.7228683,3.15135122 13.8732098,2.9998878 14.0583317,2.9998878 L41.8053073,2.9998878 C41.9904293,2.9998878 42.1418927,3.15135122 42.1418927,3.33647317 L42.1418927,19.7394 C42.1418927,19.924522 41.9904293,20.0759854 41.8053073,20.0759854 L41.2555512,20.0759854 L31.3633073,23.4990585 L40.2166244,26.5631073 L41.0569659,27.9778878 L40.2166244,29.3803268 L31.3633073,32.4432537 L41.3565268,35.9022293 L41.9029171,35.9022293 C42.0857951,35.9022293 42.2338927,36.0503268 42.2338927,36.2332049 L42.2338927,36.2332049 Z M16.0576488,48.0316439 C18.2993073,48.0316439 20.1157463,46.2140829 20.1157463,43.9724244 C20.1157463,41.7318878 18.2993073,39.9154488 16.0576488,39.9154488 C13.8171122,39.9154488 11.9995512,41.7318878 11.9995512,43.9724244 C11.9995512,46.2140829 13.8171122,48.0316439 16.0576488,48.0316439 L16.0576488,48.0316439 Z M35.8455024,43.9724244 C35.8455024,41.7318878 37.6619415,39.9154488 39.904722,39.9154488 C42.1452585,39.9154488 43.9616976,41.7318878 43.9616976,43.9724244 C43.9616976,46.2140829 42.1452585,48.0316439 39.904722,48.0316439 C37.6619415,48.0316439 35.8455024,46.2140829 35.8455024,43.9724244 L35.8455024,43.9724244 Z"></path></g></svg>