<svg xmlns="http://www.w3.org/2000/svg" xmlns:xlink="http://www.w3.org/1999/xlink" width="52px" height="52px" viewBox="0 0 52 52" version="1.1"><title>Compaction</title><g stroke="none" stroke-width="1" fill="currentColor" fill-rule="evenodd"><path d="M9.48688372,34.0615814 C8.8695814,34.0615814 8.37060465,33.5614884 8.37060465,32.9453023 L8.37060465,26.6226977 C8.37060465,26.0053953 8.8695814,25.5064186 9.48688372,25.5064186 L20.0546977,25.5064186 C18.4863256,22.3897674 15.2669767,20.2476279 11.5386047,20.2476279 C6.27088372,20.2476279 2,24.5185116 2,29.7862326 C2,35.0550698 6.27088372,39.3248372 11.5386047,39.3248372 C15.2692093,39.3248372 18.4885581,37.1804651 20.0580465,34.0615814 L9.48688372,34.0615814 Z M49.7577674,27.8104186 L47.936,21.055814 C47.8746047,20.8236279 47.6870698,20.6472558 47.4515349,20.6014884 C45.563907,20.239814 37.348093,18.8455814 35.4314419,18.5207442 C35.1836279,18.4794419 34.9938605,18.2986047 34.9346977,18.0541395 C34.7214884,17.1711628 34.200186,14.9196279 33.7179535,12.2226977 C33.6945116,12.0876279 33.5739535,11.9927442 33.4388837,11.9994419 L24.2708837,12.5263256 C24.0945116,12.5363721 23.9549767,12.6837209 23.9549767,12.8612093 L23.9549767,13.9250233 C23.9549767,14.1192558 24.1168372,14.2733023 24.3099535,14.2654884 L31.6896744,13.9395349 C31.8258605,13.936186 31.9430698,14.0344186 31.9631628,14.1694884 L32.8461395,19.9629767 C32.9030698,20.3436279 32.6083721,20.6863256 32.2243721,20.6863256 L21.0202791,20.6885581 C20.8740465,20.6885581 20.7322791,20.7387907 20.6195349,20.8314419 L19.8537674,21.4666047 C21.2703256,22.8809302 22.3151628,24.6602791 22.8643721,26.6461395 L9.76930233,26.6461395 C9.5627907,26.6461395 9.39534884,26.8470698 9.39534884,27.0948837 L9.39534884,32.4775814 C9.39534884,32.7253953 9.5627907,32.9263256 9.76930233,32.9263256 L22.8643721,32.9263256 L24.3423256,32.9263256 L31.5746977,32.9263256 C31.8816744,29.3888372 34.8453953,26.6137674 38.4621395,26.6137674 C42.0777674,26.6137674 45.0426047,29.3888372 45.3484651,32.9263256 L48.3914419,32.9263256 C48.6894884,32.9263256 48.9473488,32.7108837 49.0076279,32.4195349 C49.6070698,29.5484651 49.8571163,28.0124651 49.7577674,27.8104186 L49.7577674,27.8104186 Z M32.6686512,33.5313488 C32.6686512,30.3309767 35.2617674,27.7378605 38.4621395,27.7378605 C41.6613953,27.7378605 44.2556279,30.3309767 44.2556279,33.5313488 C44.2556279,36.7317209 41.6613953,39.3259535 38.4621395,39.3259535 C35.2617674,39.3259535 32.6686512,36.7317209 32.6686512,33.5313488 L32.6686512,33.5313488 Z"></path></g></svg>