<svg xmlns="http://www.w3.org/2000/svg" xmlns:xlink="http://www.w3.org/1999/xlink" width="52px" height="52px" viewBox="0 0 52 52" version="1.1"><title>Air Compressor and Air Tools</title><g stroke="none" stroke-width="1" fill="currentColor" fill-rule="evenodd"><path d="M27.4554909,16.4888909 L27.4809455,20.8047091 L14.0460364,20.8047091 L14.0460364,19.3627091 C14.0460364,19.1552545 14.3693091,18.9847091 14.7740364,18.9808909 L18.6444,18.9503455 C19.0478545,18.9465273 19.3724,18.7759818 19.3724,18.5685273 L19.3724,16.4888909 C19.3724,16.2788909 19.7033091,16.1083455 20.1118545,16.1083455 L26.7160364,16.1083455 C27.1233091,16.1083455 27.4542182,16.2776182 27.4554909,16.4888909 Z M32.2045455,19.5700364 C30.6747273,19.1016727 29.5547273,17.6953091 29.5547273,16.0114909 C29.5547273,13.9471273 31.2270909,12.2722182 33.2927273,12.2722182 C35.3596364,12.2722182 37.032,13.9471273 37.032,16.0114909 C37.032,17.6953091 35.912,19.1016727 34.3821818,19.5700364 L34.3821818,20.8045818 L32.2045455,20.8045818 L32.2045455,19.5700364 Z M11.9142182,37.8686727 L11.9142182,36.2854 L17.3564,36.2854 L16.0645818,38.8117636 C15.7094909,39.5041273 14.9980364,39.9394 14.2204,39.9394 L13.9862182,39.9394 C12.8420364,39.9394 11.9142182,39.0115818 11.9142182,37.8686727 Z M45.9596727,27.6893091 L45.9609455,27.9005818 C45.9609455,28.2314909 45.9456727,28.5674909 45.9164,28.9009455 C45.6198545,32.2329455 42.6976727,34.8433091 39.2574909,34.8433091 L11.7105818,34.8433091 C8.05276364,34.8433091 5.1064,31.9873091 5.00585455,28.3396727 C5.00203636,28.1958545 4.99949091,28.0494909 4.99949091,27.9005818 L4.99949091,27.8280364 L4.99949091,27.7542182 C5.03385455,24.1791273 8.03749091,21.2722182 11.6965818,21.2722182 L39.2613091,21.2722182 C42.8873091,21.2722182 45.8909455,24.1524 45.9596727,27.6893091 Z M34.8905091,38.8120182 L33.5974182,36.2856545 L39.0408727,36.2856545 L39.0408727,37.8689273 C39.0408727,39.0118364 38.1130545,39.9396545 36.9688727,39.9396545 L36.7334182,39.9396545 C35.9570545,39.9396545 35.2443273,39.5043818 34.8905091,38.8120182 Z"></path></g></svg>