<svg xmlns="http://www.w3.org/2000/svg" xmlns:xlink="http://www.w3.org/1999/xlink" width="52px" height="52px" viewBox="0 0 52 52" version="1.1"><title>Concrete and Masonry</title><g stroke="none" stroke-width="1" fill="currentColor" fill-rule="evenodd"><path d="M14.9649032,11.8743226 C17.3029677,10.8407742 19.9403871,9.67690323 22.0707097,8.74270968 C22.7390968,8.50658065 26.235871,8.5556129 29.1790968,8.74787097 L36.2397419,11.8717419 C33.1378065,12.1130323 29.1287742,12.3581935 25.5790968,12.3581935 C22.0436129,12.3581935 18.0565161,12.1156129 14.9649032,11.8743226 L14.9649032,11.8743226 Z M40.2926452,33.0317419 C40.2926452,32.5194839 39.8771613,32.104 39.3623226,32.104 L36.9713548,32.104 C36.6784516,32.104 36.3894194,32.1556129 36.1145806,32.2575484 L27.1313548,35.6059355 L27.1313548,31.220129 L30.0229677,31.220129 C30.3094194,31.220129 30.5416774,30.987871 30.5416774,30.7014194 L30.548129,27.9491613 L38.3636129,22.1298065 C39.5507097,21.0485161 40.2268387,19.5181935 40.2268387,17.9130323 L40.2268387,11.3259355 C40.2268387,11.0136774 40.0436129,10.7323871 39.7584516,10.6059355 L30.0139355,6.29496774 C29.8694194,6.25883871 29.7365161,6.22529032 29.5932903,6.18916129 C27.4913548,6.04335484 22.4203871,5.77109677 21.0487742,6.3723871 C18.1107097,7.66141935 14.2100645,9.38529032 11.4590968,10.6020645 C11.1739355,10.7285161 10.9997419,11.0072258 10.9997419,11.3181935 L10.9997419,17.9543226 C10.9997419,19.5607742 11.6771613,21.0923871 12.8655484,22.1723871 L20.632,27.9427097 L20.632,30.7014194 C20.632,30.987871 20.8629677,31.220129 21.1494194,31.220129 L24.0965161,31.220129 L24.0965161,36.7375484 L15.9584516,39.7710968 C15.6978065,39.8665806 15.5649032,40.1414194 15.6216774,40.4123871 C15.6926452,40.7465806 15.712,41.1969032 15.4397419,41.5272258 C14.9494194,42.1220645 12.4074839,42.9027097 12.4074839,42.9027097 C12.3997419,42.9052903 12.3932903,42.907871 12.3868387,42.9104516 C12.232,42.9852903 12.1661935,43.1710968 12.2423226,43.3259355 L12.748129,44.7891613 C12.8190968,44.9349677 12.9868387,45.0020645 13.1378065,44.9465806 L39.6732903,35.5298065 C40.0449032,35.3981935 40.2926452,35.0472258 40.2926452,34.6536774 L40.2926452,33.0317419 Z"></path></g></svg>