<svg xmlns="http://www.w3.org/2000/svg" xmlns:xlink="http://www.w3.org/1999/xlink" width="52px" height="52px" viewBox="0 0 52 52" version="1.1"><title>Earthmoving Equipment</title><g stroke="none" stroke-width="1" fill="currentColor" fill-rule="evenodd"><path d="M38.0791467,16.56544 C38.0791467,16.3777067 37.9266133,16.22624 37.7410133,16.22624 L32.3202133,16.22624 C32.1698133,16.22624 32.0407467,16.32864 32.00768,16.4747733 L30.85248,21.5435733 L38.0791467,21.5265067 L38.0791467,16.56544 Z M49.4807467,28.7105067 L48.5698133,32.00864 C48.5698133,32.1291733 48.5015467,32.2379733 48.3938133,32.2913067 L45.26848,32.9707733 C45.2503467,29.5809067 42.4983467,26.83744 39.1042133,26.83744 C35.70048,26.83744 32.9410133,29.5947733 32.93888,32.99744 L26.94528,32.9985067 C26.94208,29.59584 24.1826133,26.83744 20.7778133,26.83744 C18.2167467,26.83744 16.0919467,28.43104 15.09248,30.6251733 C14.6007467,31.70464 13.4775467,34.9121067 10.68608,34.9121067 L2.32661333,34.9121067 C2.03968,34.9121067 1.89248,34.5697067 2.09088,34.3617067 C2.47488,33.9563733 4.52821333,32.7009067 5.51488,32.10784 C5.86368,31.8987733 6.14528,31.5979733 6.33408,31.2363733 L7.56714667,28.7211733 C7.65568,28.53984 7.67061333,28.3307733 7.61088,28.13984 L6.77034667,25.4923733 C6.67434667,25.3313067 6.81088,25.1297067 6.99648,25.16064 L10.6914133,25.87744 C10.91008,25.9211733 11.1063467,26.04064 11.2439467,26.2155733 L13.59808,29.2097067 L15.1682133,23.39424 C15.3378133,23.0539733 15.6727467,22.82464 16.05248,22.7915733 L28.2903467,21.5489067 L28.5687467,21.5489067 L30.0951467,14.85024 C30.2082133,14.3531733 30.6498133,14.0001067 31.1607467,14.0001067 L39.9671467,14.0001067 C40.1527467,14.0001067 40.30528,14.1515733 40.30528,14.3393067 L40.30528,19.9051733 L48.64128,21.8155733 L49.4807467,28.7105067 Z M39.1042133,38.0523733 C41.8914133,38.0523733 44.15168,35.79104 44.15168,33.0027733 C44.15168,30.2155733 41.8914133,27.9553067 39.1042133,27.9553067 C36.3159467,27.9553067 34.05568,30.2155733 34.05568,33.0027733 C34.05568,35.79104 36.3159467,38.0523733 39.1042133,38.0523733 L39.1042133,38.0523733 Z M15.7303467,33.0027733 C15.7303467,30.2155733 17.9906133,27.9553067 20.77888,27.9553067 C23.5671467,27.9553067 25.8274133,30.2155733 25.8274133,33.0027733 C25.8274133,35.79104 23.5671467,38.0523733 20.77888,38.0523733 C17.9906133,38.0523733 15.7303467,35.79104 15.7303467,33.0027733 L15.7303467,33.0027733 Z"></path></g></svg>