<svg xmlns="http://www.w3.org/2000/svg" xmlns:xlink="http://www.w3.org/1999/xlink" width="52px" height="52px" viewBox="0 0 52 52" version="1.1"><title>Forklifts and Material Handling</title><g stroke="none" stroke-width="1" fill="currentColor" fill-rule="evenodd"><path d="M36.3026286,27.1109714 L36.3140571,27.1109714 C36.4934857,27.1041143 36.6340571,26.9532571 36.6272,26.7738286 L36.2546286,17.4481143 C36.2466286,17.2446857 36.0809143,17.0858286 35.8786286,17.0858286 L30.3826286,17.0858286 C30.2432,17.0858286 30.1220571,17.1784 30.0854857,17.3132571 L28.5152,26.7006857 C28.5072,26.7281143 28.5037714,26.7566857 28.5037714,26.7852571 C28.5037714,26.9646857 28.6489143,27.1109714 28.8294857,27.1109714 L36.3026286,27.1109714 Z M28.8900571,36.8446857 C28.8900571,36.8069714 28.9003429,36.7726857 28.9003429,36.7361143 C28.9003429,33.5269714 26.2992,30.9269714 23.0912,30.9269714 C19.8843429,30.9269714 17.2820571,33.5269714 17.2820571,36.7361143 C17.2820571,36.7726857 17.2923429,36.8069714 17.2934857,36.8446857 L2.32548571,36.8435429 C2.26377143,36.8435429 2.2032,36.8252571 2.15062857,36.7932571 C1.99977143,36.6972571 1.95405714,36.4949714 2.05005714,36.3429714 L2.9952,34.8492571 C3.06491429,34.7395429 3.18491429,34.6732571 3.3152,34.6732571 L15.1906286,34.6732571 L15.1906286,18.7704 C15.1906286,18.5646857 15.3586286,18.3978286 15.5643429,18.3978286 L17.2374857,18.3978286 L17.2694857,11.3738286 C17.2706286,11.1681143 17.4374857,11.0001143 17.6454857,11.0001143 L19.9586286,11.0001143 C20.1106286,11.0001143 20.2477714,11.0892571 20.3094857,11.2298286 L21.5746286,14.1258286 C21.6466286,14.2881143 21.6832,14.4652571 21.6832,14.6424 L21.6832,15.8732571 L21.6832,27.0778286 L26.2500571,27.0778286 L28.2009143,16.0286857 C28.3460571,15.4766857 28.8443429,15.0926857 29.4146286,15.0926857 L37.7860571,15.0926857 C37.9883429,15.0926857 38.1529143,15.2515429 38.1632,15.4526857 L38.6043429,24.9086857 L45.1632,24.9086857 L49.3952,27.5246857 C49.7232,27.6732571 49.9346286,28.0012571 49.9346286,28.3624 L49.9346286,33.3144 C48.8774857,31.8732571 47.1849143,30.9269714 45.2614857,30.9269714 C42.0534857,30.9269714 39.4534857,33.5269714 39.4534857,36.7361143 C39.4534857,36.7726857 39.4637714,36.8069714 39.4649143,36.8458286 L28.8900571,36.8446857 Z M23.0912,41.4092571 C25.6717714,41.4092571 27.7643429,39.3166857 27.7643429,36.7361143 C27.7643429,34.1544 25.6717714,32.0629714 23.0912,32.0629714 C20.5117714,32.0629714 18.4192,34.1544 18.4192,36.7361143 C18.4192,39.3166857 20.5117714,41.4092571 23.0912,41.4092571 L23.0912,41.4092571 Z M40.5883429,36.7361143 C40.5883429,34.1544 42.6809143,32.0629714 45.2614857,32.0629714 C47.8432,32.0629714 49.9346286,34.1544 49.9346286,36.7361143 C49.9346286,39.3166857 47.8432,41.4092571 45.2614857,41.4092571 C42.6809143,41.4092571 40.5883429,39.3166857 40.5883429,36.7361143 L40.5883429,36.7361143 Z"></path></g></svg>