<svg xmlns="http://www.w3.org/2000/svg" data-name="Layer 1" viewBox="0 0 187.5 64.8"><g id="Layer_2" data-name="Layer 2"><title>Ground Protection Matting</title><g id="icons"><path d="M177.66,60.3,10,61.42c-2.79,0-6.39-2.34-5.06-5.06L29.29,7.92a8.18,8.18,0,0,1,7.07-5H150.19C153,2.92,155,4.83,156.65,8l26.07,47.26C183.92,58.08,180.44,60.3,177.66,60.3Z" transform="translate(-0.02)" fill="CurrentColor"></path><path d="M182.51,63.1,4.92,64.3C2,64.3-.58,58.86,1,56L26.74,5.92A8.69,8.69,0,0,1,34.23.5H152.47c2.94,0,5.1,2.07,6.85,5.48l27.14,49.76C188.25,59.19,185.46,63.1,182.51,63.1Z" transform="translate(-0.02)" fill="none" stroke="CurrentColor" stroke-miterlimit="10"></path></g></g></svg>