<svg xmlns="http://www.w3.org/2000/svg" xmlns:xlink="http://www.w3.org/1999/xlink" width="52px" height="52px" viewBox="0 0 52 52" version="1.1"><title>Tools - Power, Hand, and Surveying</title><g stroke="none" stroke-width="1" fill="currentColor" fill-rule="evenodd"><path d="M45.875,11.3629 C45.5615,10.5409 44.777,10.0099 43.8995,10.0099 C38.1275,10.0084 17.138,10.0009 15.3665,10.0009 C13.3895,10.0009 13.1345,12.1024 13.1195,12.2359 L10.6775,12.2359 C10.634,12.2359 10.598,12.2569 10.556,12.2614 L10.532,12.2614 C10.523,12.2614 10.517,12.2689 10.508,12.2704 C9.8645,12.3574 9.3605,12.8854 9.3605,13.5529 L9.3605,14.7649 L5.2115,14.7649 C5.0945,14.7649 5,14.8594 5,14.9749 L5,16.0594 C5,16.1749 5.0945,16.2694 5.2115,16.2694 L9.3605,16.2694 L9.3605,17.3944 C9.3605,18.0169 9.8,18.5134 10.3805,18.6514 C10.418,18.6934 10.4705,18.7189 10.532,18.7189 L13.079,18.7189 C13.079,18.7189 13.193,20.9089 15.503,20.9089 L22.5095,20.9089 C22.5095,24.0559 23.1905,24.6289 24.791,24.6289 L27.257,24.6289 L29.771,37.6579 C29.933,38.3329 30.374,38.6944 31.385,38.5144 L32.441,38.3254 L32.441,42.4234 L35.414,42.4234 L35.414,37.8904 L36.509,37.6579 C37.535,37.4629 37.499,37.0609 37.5095,36.3349 L37.229,21.8269 L43.961,21.8269 C44.8505,21.8269 45.6575,21.2749 45.959,20.4364 C46.379,19.2634 46.712,17.8894 46.712,15.9889 C46.712,14.0569 46.328,12.5509 45.875,11.3629"></path></g></svg>