<svg xmlns="http://www.w3.org/2000/svg" xmlns:xlink="http://www.w3.org/1999/xlink" width="52px" height="52px" viewBox="0 0 52 52" version="1.1"><title>Power and HVAC</title><g stroke="none" stroke-width="1" fill="currentColor" fill-rule="evenodd"><path d="M48.7844324,13.2220108 L43.1074595,13.2220108 L42.6572973,11.1696865 C42.6144865,11.0672 42.5132973,10.9997405 42.4017297,10.9997405 L31.4460541,10.9997405 C31.3344865,10.9997405 31.2332973,11.0672 31.1891892,11.1683892 L30.7312432,13.2220108 L27.5541622,13.2220108 C27.5554595,13.2090378 27.5671351,13.2012541 27.5671351,13.1895784 L27.3997838,11.2592 C27.3868108,11.1126054 27.2622703,10.9997405 27.1156757,10.9997405 L23.9878919,10.9997405 C23.8387027,10.9997405 23.7180541,11.1126054 23.7037838,11.2592 L23.5338378,13.1895784 C23.5325405,13.2012541 23.5455135,13.2090378 23.5455135,13.2220108 L17.0084324,13.2220108 C16.7736216,13.2220108 16.5842162,13.4114162 16.5842162,13.646227 L16.5842162,29.1904432 L6.91156757,29.1904432 L6.91156757,27.8192 C6.91156757,27.5830919 6.72086486,27.3910919 6.48475676,27.3910919 L2.42810811,27.3910919 C2.192,27.3910919 2,27.5830919 2,27.8192 L2,29.5433081 C2,29.7807135 2.192,29.9714162 2.42810811,29.9714162 L4.25859459,29.9740108 L5.32497297,31.8006054 L6.48475676,31.8006054 L17.0084324,31.8006054 L17.180973,31.8006054 L28.9682162,31.8006054 C29.6895135,28.0669838 32.972973,25.2479568 36.9167568,25.2479568 C40.8605405,25.2479568 44.1427027,28.0669838 44.8652973,31.8006054 L48.7844324,31.8006054 C49.0192432,31.8006054 49.2086486,31.6112 49.2086486,31.3763892 L49.2086486,13.646227 C49.2086486,13.4114162 49.0192432,13.2220108 48.7844324,13.2220108 M36.9167568,40.1474162 C33.1623784,40.1474162 30.1176216,37.1039568 30.1176216,33.3495784 C30.1176216,29.5952 33.1623784,26.5504432 36.9167568,26.5504432 C40.6711351,26.5504432 43.7145946,29.5952 43.7145946,33.3495784 C43.7145946,37.1039568 40.6711351,40.1474162 36.9167568,40.1474162"></path></g></svg>