<svg xmlns="http://www.w3.org/2000/svg" xmlns:xlink="http://www.w3.org/1999/xlink" width="52px" height="52px" viewBox="0 0 52 52" version="1.1"><title>Lawn and Landscape</title><g id="Icons/Catalog/Regular/Lawn-landscape" stroke="none" stroke-width="1" fill="currentColor" fill-rule="evenodd"><path d="M49.9312727,14.0090909 C49.3607273,13.2149091 47.3632727,10.4832727 47.0905455,10.1265455 C46.9847273,9.98581818 46.7861818,9.95854545 46.6432727,10.0621818 L45.3483636,10.996 C45.1923636,11.1094545 45.1650909,11.3298182 45.2927273,11.4738182 C45.4956364,11.704 46.4752727,13.0621818 46.8003636,13.5334545 C46.9018182,13.6818182 46.8701818,13.8792727 46.7261818,13.9850909 C44.8138182,15.3858182 35.4745455,22.2170909 34.3629091,23.032 C34.1894545,23.1596364 29.6687273,26.5174545 28.8047273,26.9134545 C28.4196364,27.0901818 28.2178182,27.3672727 28.1141818,27.7589091 C27.8676364,28.6894545 27.6243636,29.6232727 27.3778182,30.5516364 C26.8552727,32.5294545 22.7861818,33.7774545 22.4010909,33.8330909 C22.3923636,33.4774545 22.3716364,32.0963636 22.4218182,32.0418182 C22.4709091,31.9883636 23.6447273,31.7690909 23.8236364,31.7505455 C24.0243636,31.7298182 24.1410909,31.6141818 24.1738182,31.4232727 C24.2665455,30.8625455 24.3101818,29.8010909 24.1432727,29.1116364 C24.0538182,28.7429091 23.9578182,28.4396364 23.5596364,28.4505455 C22.4818182,28.4832727 22.1938182,28.264 22.0901818,27.6618182 C22.0127273,27.2090909 21.596,26.7770909 21.0494545,26.7258182 C17.6938182,26.4083636 15.5894545,26.9723636 12.5218182,27.7130909 C12.1770909,27.796 11.9141818,27.9890909 11.7865455,28.372 C11.6425455,28.8050909 11.9065455,29.3789091 10.5538182,29.5185455 C9.96363636,29.5785455 9.836,29.9461818 9.77381818,30.52 C9.67890909,31.4243636 9.79781818,32.1269091 9.92436364,32.7029091 C9.99854545,33.0323636 10.2298182,33.1436364 10.5036364,33.1229091 C11.0152727,33.0825455 11.6218182,33.0225455 11.6654545,33.0552727 C11.7058182,33.0847273 11.6981818,35.1050909 11.6741818,35.1334545 C11.6545455,35.1563636 10.6116364,35.2501818 9.90036364,35.296 C10.3149091,36.0094545 10.5690909,36.8265455 10.5690909,37.7123636 C10.5690909,38.4792727 10.3738182,39.1949091 10.0552727,39.8396364 C11.6283636,39.7883636 16.8221818,39.6476364 18.8316364,39.6530909 C20.2945455,39.6563636 23.7309091,39.5309091 25.616,39.5101818 C25.04,38.3090909 24.836,36.8985455 25.3443636,35.3745455 C25.9825455,33.46 27.6450909,31.984 29.6349091,31.6458182 C33.1345455,31.0501818 36.1661818,33.7294545 36.1661818,37.1189091 C36.1661818,37.6763636 36.0581818,38.2043636 35.9065455,38.7127273 C37.6574545,38.5578182 38.204,38.5894545 38.8138182,38.5709091 C42.6036364,38.452 43.6607273,37.1090909 43.6836364,34.1930909 C43.6945455,32.9243636 43.2363636,25.108 43.2265455,24.6214545 C43.2090909,23.8207273 42.7181818,23.3810909 42.0974545,23.3669091 C41.432,23.3516364 37.7589091,23.7138182 37.4818182,23.728 C37.5472727,23.6701818 47.8476364,15.9650909 49.8614545,14.4661818 C50.0054545,14.3570909 50.0370909,14.1563636 49.9312727,14.0090909 M5.72981818,33.9825455 C3.67018182,33.9825455 1.99890909,35.6516364 1.99890909,37.7123636 C1.99890909,39.772 3.67018182,41.4410909 5.72981818,41.4410909 C7.79054545,41.4410909 9.46072727,39.772 9.46072727,37.7123636 C9.46072727,35.6516364 7.79054545,33.9825455 5.72981818,33.9825455 M35.0610909,37.1189091 C35.0610909,39.5767273 33.0690909,41.5687273 30.6101818,41.5687273 C28.1523636,41.5687273 26.1592727,39.5767273 26.1592727,37.1189091 C26.1592727,34.66 28.1523636,32.668 30.6101818,32.668 C33.0690909,32.668 35.0610909,34.66 35.0610909,37.1189091"></path></g></svg>