<svg xmlns="http://www.w3.org/2000/svg" xmlns:xlink="http://www.w3.org/1999/xlink" width="52px" height="52px" viewBox="0 0 52 52" version="1.1"><title>Light Towers and Generators</title><g stroke="none" stroke-width="1" fill="currentColor" fill-rule="evenodd"><path d="M18.8286,5.7174 C18.8286,5.0534 18.2906,4.5164 17.6276,4.5164 C16.9646,4.5164 16.4276,5.0534 16.4276,5.7174 C16.4276,6.3804 16.9646,6.9174 17.6276,6.9174 C18.2906,6.9174 18.8286,6.3804 18.8286,5.7174 M17.6276,11.9194 C16.9646,11.9194 16.4276,12.4574 16.4276,13.1204 C16.4276,13.7844 16.9646,14.3214 17.6276,14.3214 C18.2906,14.3214 18.8286,13.7844 18.8286,13.1204 C18.8286,12.4574 18.2906,11.9194 17.6276,11.9194 M26.2636,13.1204 C26.2636,13.7844 26.8016,14.3214 27.4646,14.3214 C28.1286,14.3214 28.6656,13.7844 28.6656,13.1204 C28.6656,12.4574 28.1286,11.9194 27.4646,11.9194 C26.8016,11.9194 26.2636,12.4574 26.2636,13.1204 M27.4646,6.9174 C28.1286,6.9174 28.6656,6.3804 28.6656,5.7174 C28.6656,5.0534 28.1286,4.5164 27.4646,4.5164 C26.8016,4.5164 26.2636,5.0534 26.2636,5.7174 C26.2636,6.3804 26.8016,6.9174 27.4646,6.9174 M43.9236,30.3824 L43.9236,42.8154 C43.9236,42.9804 43.7906,43.1134 43.6266,43.1134 L40.9626,43.1134 C40.4526,40.4514 38.1106,38.4344 35.3046,38.4344 C32.4966,38.4344 30.1536,40.4514 29.6436,43.1134 L11.3316,43.1134 L10.5836,41.6834 L9.3006,41.6804 C9.1346,41.6804 8.9996,41.5464 8.9996,41.3804 L8.9996,40.1264 C8.9996,39.9604 9.1346,39.8264 9.3006,39.8264 L12.1436,39.8264 C12.3096,39.8264 12.4446,39.9604 12.4446,40.1264 L12.4446,41.0874 L21.0466,41.0874 L21.0466,30.3824 C21.0466,30.3674 21.0596,30.3584 21.0616,30.3434 L21.6346,10.2634 L18.1706,10.2634 L18.1706,10.4584 C19.4116,10.7094 20.3456,11.8064 20.3456,13.1204 C20.3456,14.6214 19.1286,15.8384 17.6276,15.8384 C16.1266,15.8384 14.9106,14.6214 14.9106,13.1204 C14.9106,11.8064 15.8446,10.7094 17.0846,10.4584 L17.0846,9.9614 L17.0846,8.8754 L17.0846,8.3794 C15.8446,8.1274 14.9106,7.0314 14.9106,5.7174 C14.9106,4.2164 16.1266,2.9994 17.6276,2.9994 C19.1286,2.9994 20.3456,4.2164 20.3456,5.7174 C20.3456,7.0314 19.4116,8.1274 18.1706,8.3794 L18.1706,8.5714 L26.9216,8.5714 L26.9216,8.3794 C25.6816,8.1274 24.7476,7.0314 24.7476,5.7174 C24.7476,4.2164 25.9646,2.9994 27.4646,2.9994 C28.9656,2.9994 30.1826,4.2164 30.1826,5.7174 C30.1826,7.0314 29.2476,8.1274 28.0076,8.3794 L28.0076,10.4584 C29.2476,10.7094 30.1826,11.8064 30.1826,13.1204 C30.1826,14.6214 28.9656,15.8384 27.4646,15.8384 C25.9646,15.8384 24.7476,14.6214 24.7476,13.1204 C24.7476,11.8064 25.6816,10.7094 26.9216,10.4584 L26.9216,10.2634 L23.4386,10.2634 L24.0096,30.0844 L41.0046,30.0844 L41.1066,28.9134 C41.1166,28.8104 41.2026,28.7304 41.3076,28.7304 L43.5896,28.7304 C43.6926,28.7304 43.7796,28.8104 43.7886,28.9134 L43.9056,30.2644 C43.9076,30.2794 43.8936,30.2904 43.8916,30.3054 C43.8996,30.3324 43.9236,30.3524 43.9236,30.3824 M35.3046,48.9664 C32.6756,48.9664 30.5366,46.8274 30.5366,44.1984 C30.5366,41.5704 32.6756,39.4324 35.3046,39.4324 C37.9326,39.4324 40.0706,41.5704 40.0706,44.1984 C40.0706,46.8274 37.9326,48.9664 35.3046,48.9664"></path></g></svg>