<svg xmlns="http://www.w3.org/2000/svg" data-name="Layer 1" viewBox="0 0 109.11 198.83"><title>Crane</title><g id="Layer_2" data-name="Layer 2"><g id="icons" fill="currentColor" fill-rule="evenodd"><path d="M22,174.66a6.67,6.67,0,1,0,6.67,6.67h0A6.67,6.67,0,0,0,22,174.66Zm0,13a6.3,6.3,0,1,1,6.3-6.3,6.3,6.3,0,0,1-6.3,6.3Z" fill="none"></path><path d="M22,175a6.3,6.3,0,1,0,6.3,6.3A6.3,6.3,0,0,0,22,175Zm0,11.86a5.56,5.56,0,1,1,5.56-5.56h0A5.56,5.56,0,0,1,22,186.89h0Z" fill="currentColor"></path><path d="M32.21,182.24v-1.65h-.36v-.35h.36a10.21,10.21,0,0,0-.31-1.65l-.35.1-.09-.33.34-.1a9.92,9.92,0,0,0-.59-1.48l-.32.16-.16-.3.32-.17a9.76,9.76,0,0,0-1-1.47l-.27.23-.22-.27.28-.23a10.68,10.68,0,0,0-1.16-1.17l-.23.27-.26-.22.23-.27a10,10,0,0,0-1.39-1l-.17.31-.31-.16.17-.32a9.84,9.84,0,0,0-1.46-.62l-.11.34-.33-.11.11-.34a10,10,0,0,0-1.71-.36v.36h-.34v-.36H21.23v.36h-.35v-.36a10.21,10.21,0,0,0-1.65.31l.1.35-.33.09-.1-.34a11.13,11.13,0,0,0-1.48.59l.17.32-.31.16-.17-.32a9.76,9.76,0,0,0-1.47,1l.23.27-.27.22-.23-.28a10.68,10.68,0,0,0-1.17,1.16l.27.23-.22.27-.27-.23a8.67,8.67,0,0,0-1,1.38l.32.18-.17.3-.32-.17a11,11,0,0,0-.62,1.46l.34.11-.11.33-.34-.11a10,10,0,0,0-.36,1.71h.36v.35h-.36v1.65h.36v.35h-.36a10.21,10.21,0,0,0,.31,1.65l.35-.1.1.33-.35.1a9.92,9.92,0,0,0,.59,1.48l.32-.16.16.3-.32.17a10.57,10.57,0,0,0,1,1.47l.28-.23.21.27-.28.23a10.68,10.68,0,0,0,1.16,1.17l.23-.27.27.22-.23.27a8.67,8.67,0,0,0,1.38.95l.18-.31.3.16-.17.32a9.84,9.84,0,0,0,1.46.62l.11-.34.33.11-.11.34a10,10,0,0,0,1.71.36v-.36h.35v.36h1.65v-.36h.34v.36a10.21,10.21,0,0,0,1.65-.31l-.1-.35.33-.09.11.34a11,11,0,0,0,1.47-.59l-.16-.32.3-.16.17.32a9.76,9.76,0,0,0,1.47-1l-.23-.27.27-.22.23.28a10.68,10.68,0,0,0,1.17-1.16l-.27-.23.22-.26.27.23A10,10,0,0,0,31,186.4l-.31-.18.16-.3.32.17a12.6,12.6,0,0,0,.63-1.46l-.35-.11.11-.33.34.11a10,10,0,0,0,.36-1.71h-.36v-.35ZM22,188a6.67,6.67,0,1,1,6.67-6.67h0A6.67,6.67,0,0,1,22,188Z" fill="currentColor"></path><circle cx="21.98" cy="181.33" r="2.6" fill="currentColor"></circle><path d="M67.89,176.74a7.32,7.32,0,1,0,7.32,7.32h0a7.31,7.31,0,0,0-7.31-7.31Zm0,14.21A4.9,4.9,0,1,1,68,191h-.06Z" fill="none"></path><path d="M67.89,177.15a6.9,6.9,0,1,0,6.91,6.9,6.9,6.9,0,0,0-6.91-6.9Zm0,13a6.1,6.1,0,1,1,6.1-6.1,6.1,6.1,0,0,1-6.1,6.1Z" fill="currentColor"></path><path d="M79.1,185.05c0-.33.05-.66.05-1v-.81h-.39v-.38h.4a10.15,10.15,0,0,0-.35-1.81l-.37.11-.11-.37.38-.11a11.78,11.78,0,0,0-.65-1.61l-.35.18-.17-.34.35-.18a11.66,11.66,0,0,0-1-1.61l-.31.24-.24-.29.31-.25a11.89,11.89,0,0,0-1.27-1.29l-.25.31-.29-.25.25-.3a11.72,11.72,0,0,0-1.52-1l-.19.35-.33-.18.18-.35a11.35,11.35,0,0,0-1.6-.69l-.12.38-.36-.12.12-.37a10.84,10.84,0,0,0-1.88-.4v.39H69v-.39h-1.8v.39h-.38v-.39a11.11,11.11,0,0,0-1.81.34l.11.38-.36.11-.12-.38A10.63,10.63,0,0,0,63,174l.18.35-.34.17-.18-.35a11.14,11.14,0,0,0-1.7,1l.25.31-.3.23-.25-.3a11.89,11.89,0,0,0-1.29,1.27l.31.25-.25.29-.3-.25a11.72,11.72,0,0,0-1,1.52l.35.19-.18.33-.35-.19a11.35,11.35,0,0,0-.69,1.6l.38.12-.11.36-.38-.12a11.15,11.15,0,0,0-.4,1.89h.39v.37h-.39v1.81h.39v.38h-.39a12.29,12.29,0,0,0,.34,1.81l.38-.11.11.36-.38.11A10,10,0,0,0,57.8,189l.35-.18.17.34-.35.18A13.5,13.5,0,0,0,59,191l.31-.25.24.3-.31.24a11.05,11.05,0,0,0,1.27,1.29l.25-.3.29.24-.25.3a10.22,10.22,0,0,0,1.52,1l.19-.34.33.18-.19.34a11.35,11.35,0,0,0,1.6.69l.12-.38.37.12-.13.38a12.19,12.19,0,0,0,1.89.39v-.39h.37v.39c.33,0,.67.05,1,.05h.81v-.39h.37v.39a11.11,11.11,0,0,0,1.81-.34l-.11-.38.36-.1.11.38a13.35,13.35,0,0,0,1.62-.65l-.18-.35.34-.18.18.36a11.47,11.47,0,0,0,1.61-1.06l-.25-.3.3-.24.24.31a11.05,11.05,0,0,0,1.29-1.27l-.3-.25.24-.29.3.25a11.72,11.72,0,0,0,1-1.52l-.34-.19.18-.34.34.19a11.35,11.35,0,0,0,.69-1.6l-.37-.12.11-.36.38.12a11.83,11.83,0,0,0,.39-1.88H78.6v-.38Zm-11.21,6.32a7.32,7.32,0,1,1,7.32-7.32,7.32,7.32,0,0,1-7.32,7.32Z" fill="currentColor"></path><circle cx="67.89" cy="184.05" r="2.85" fill="currentColor"></circle><path d="M99.65,0l9.14,4-2.27,5.44c.15,1.85.37,4.6-1.34,6.61a4.29,4.29,0,0,1-4,1.48L84.44,58.78l1.35.58-1,2.74-1.22-.21L72.73,89.39l1.48.88-1,2.53-1.42.58-11.31,28,1.66,2.9L56.63,138.9l2.44,9.28H70.29l10.35,16.5,26.27.58,1.17,2.35-2.73,14.93-1.76.69,2.73,6h-3.21l-2.72-4.9L88.56,188.7,84,198.33H80.37l3.94-9.39-5.76-1.27-2.84-10.85L60,176.65l-2.46,9.07H30.87l-4.74-12.87-10.82,1.81-3,7.41-7.59,3.47V165.72H19.26v-3.94h19.6l5.93-11.88v-2.35H27.36v-9.3h17L97.28,7,97.21.74l2.32.54Z" fill="currentColor"></path><polygon points="1.42 190.84 5.99 183.6 13.13 181.08 6.06 190.84 1.42 190.84" fill="currentColor"></polygon><polygon points="59.56 149.99 66.33 149.99 71.97 162.24 62.33 162.24 59.56 149.99" fill="#fff"></polygon><polygon points="67.47 149.99 69.37 149.99 76.56 161.44 73.12 162.07 67.47 149.99" fill="#fff"></polygon><polygon points="45.37 151.95 46.36 158.72 44.75 161.51 40.46 161.51 45.37 151.95" fill="#fff"></polygon><line x1="38.22" y1="139.96" x2="97.25" y2="4.2" fill="none" stroke="currentColor" stroke-linecap="square" stroke-miterlimit="10" stroke-width="2"></line><line x1="78.65" y1="198.33" x2="85.92" y2="198.33" fill="none" stroke="currentColor" stroke-miterlimit="10"></line><line x1="100.77" y1="189.63" x2="108.04" y2="189.63" fill="none" stroke="currentColor" stroke-miterlimit="10"></line><line y1="191.6" x2="7.27" y2="191.6" fill="none" stroke="currentColor" stroke-miterlimit="10"></line><line x1="105.22" y1="14.14" x2="105.22" y2="37.96" fill="none" stroke="currentColor" stroke-miterlimit="10" stroke-width="2"></line><path d="M104.61,40.71l-1.48-1.12V34c.37-.75,4.14-.72,4.58,0l.17,5.84-1.15.85-.1,3.43h-1.12v-.61l-.76-.34Z" fill="currentColor"></path><path d="M104.64,48.31c1.45,1.18,4.3,1.22,3.94-3.39-.16-2-2.79-1.64-2.79-1.64" fill="none" stroke="currentColor" stroke-miterlimit="10"></path></g></g></svg>