<svg xmlns="http://www.w3.org/2000/svg" width="46" height="45" viewBox="0 0 46 45" fill="none"><title>Mobile Office</title><g clip-path="url(#clip0_4312_128)"><path d="M44.5111 9H1.48889C1.21511 9 1 9.21447 1 9.48744V31.8999C1 32.1729 1.21511 32.3873 1.48889 32.3873H8.59733V14.5568C8.59733 14.3911 8.72444 14.2643 8.89067 14.2643H16.1262C16.2924 14.2643 16.4196 14.3911 16.4196 14.5568V32.3873H44.5209C44.7947 32.3873 45.0098 32.1729 45.0098 31.8999V9.48744C45.0098 9.21447 44.7947 9 44.5209 9H44.5111ZM29.9324 21.4589C29.9324 21.6247 29.8053 21.7514 29.6391 21.7514H23.9289C23.7627 21.7514 23.6356 21.6247 23.6356 21.4589V15.6097C23.6356 15.4439 23.7627 15.3172 23.9289 15.3172H29.6391C29.8053 15.3172 29.9324 15.4439 29.9324 15.6097V21.4589ZM37.4613 21.4589C37.4613 21.6247 37.3342 21.7514 37.168 21.7514H31.4578C31.2916 21.7514 31.1644 21.6247 31.1644 21.4589V15.6097C31.1644 15.4439 31.2916 15.3172 31.4578 15.3172H37.168C37.3342 15.3172 37.4613 15.4439 37.4613 15.6097V21.4589Z" fill="CurrentColor"></path><path d="M14.9822 15.3172H10.0347C9.86844 15.3172 9.74133 15.4634 9.74133 15.6487V21.4199C9.74133 21.6052 9.86844 21.7514 10.0347 21.7514H14.9822C15.1484 21.7514 15.2756 21.6052 15.2756 21.4199V15.6487C15.2756 15.4634 15.1484 15.3172 14.9822 15.3172Z" fill="CurrentColor"></path><path d="M17.7786 33.3427H7.21863C6.94862 33.3427 6.72974 33.5609 6.72974 33.8302V34.5126C6.72974 34.7818 6.94862 35 7.21863 35H17.7786C18.0486 35 18.2675 34.7818 18.2675 34.5126V33.8302C18.2675 33.5609 18.0486 33.3427 17.7786 33.3427Z" fill="CurrentColor"></path></g><defs><clipPath id="clip0_4312_128"><rect width="44" height="26" fill="white" transform="translate(1 9)"></rect></clipPath></defs></svg>