<svg xmlns="http://www.w3.org/2000/svg" xmlns:xlink="http://www.w3.org/1999/xlink" width="52px" height="52px" viewBox="0 0 52 52" version="1.1"><title>Other Equipment</title><g stroke="none" stroke-width="1" fill="currentColor" fill-rule="evenodd"><path d="M33.6689,17.3754529 C33.6689,16.8646882 34.0835471,16.4511588 34.5943118,16.4511588 C35.1039588,16.4511588 35.5174882,16.8646882 35.5174882,17.3754529 C35.5174882,17.8851 35.1039588,18.2997471 34.5943118,18.2997471 C34.0835471,18.2997471 33.6689,17.8851 33.6689,17.3754529 L33.6689,17.3754529 Z M32.1980765,9.74192353 C31.6873118,9.74192353 31.2726647,9.32839412 31.2726647,8.81762941 C31.2726647,8.30686471 31.6873118,7.89333529 32.1980765,7.89333529 C32.7088412,7.89333529 33.1223706,8.30686471 33.1223706,8.81762941 C33.1223706,9.32839412 32.7088412,9.74192353 32.1980765,9.74192353 L32.1980765,9.74192353 Z M32.1980765,21.0882765 C31.6873118,21.0882765 31.2726647,20.6747471 31.2726647,20.1639824 C31.2726647,19.6532176 31.6873118,19.2396882 32.1980765,19.2396882 C32.7088412,19.2396882 33.1223706,19.6532176 33.1223706,20.1639824 C33.1223706,20.6747471 32.7088412,21.0882765 32.1980765,21.0882765 L32.1980765,21.0882765 Z M19.4468412,26.9525706 L31.8918412,26.9525706 L31.8918412,22.0706882 L19.4468412,22.0706882 L19.4468412,26.9525706 Z M19.4468412,37.7076882 L31.8918412,37.7076882 L31.8918412,32.6413941 L19.4468412,32.6413941 L19.4468412,37.7076882 Z M18.9517235,14.5332765 C18.9517235,14.0225118 19.3663706,13.6089824 19.8760176,13.6089824 C20.3867824,13.6089824 20.8003118,14.0225118 20.8003118,14.5332765 C20.8003118,15.0440412 20.3867824,15.4575706 19.8760176,15.4575706 C19.3663706,15.4575706 18.9517235,15.0440412 18.9517235,14.5332765 L18.9517235,14.5332765 Z M17.7122529,12.5058647 C17.2026059,12.5058647 16.7879588,12.0912176 16.7879588,11.5804529 C16.7879588,11.0708059 17.2026059,10.6561588 17.7122529,10.6561588 C18.2230176,10.6561588 18.6376647,11.0708059 18.6376647,11.5804529 C18.6376647,12.0912176 18.2230176,12.5058647 17.7122529,12.5058647 L17.7122529,12.5058647 Z M17.7122529,18.2997471 C17.2026059,18.2997471 16.7879588,17.8851 16.7879588,17.3754529 C16.7879588,16.8646882 17.2026059,16.4511588 17.7122529,16.4511588 C18.2230176,16.4511588 18.6376647,16.8646882 18.6376647,17.3754529 C18.6376647,17.8851 18.2230176,18.2997471 17.7122529,18.2997471 L17.7122529,18.2997471 Z M15.3160176,9.74192353 C14.8063706,9.74192353 14.3917235,9.32839412 14.3917235,8.81762941 C14.3917235,8.30686471 14.8063706,7.89333529 15.3160176,7.89333529 C15.8267824,7.89333529 16.2403118,8.30686471 16.2403118,8.81762941 C16.2403118,9.32839412 15.8267824,9.74192353 15.3160176,9.74192353 L15.3160176,9.74192353 Z M15.3160176,21.0882765 C14.8063706,21.0882765 14.3917235,20.6747471 14.3917235,20.1639824 C14.3917235,19.6532176 14.8063706,19.2396882 15.3160176,19.2396882 C15.8267824,19.2396882 16.2403118,19.6532176 16.2403118,20.1639824 C16.2403118,20.6747471 15.8267824,21.0882765 15.3160176,21.0882765 L15.3160176,21.0882765 Z M23.8235471,19.2396882 C24.3343118,19.2396882 24.7500765,19.6532176 24.7500765,20.1639824 C24.7500765,20.6747471 24.3343118,21.0882765 23.8235471,21.0882765 C23.3127824,21.0882765 22.9003706,20.6747471 22.9003706,20.1639824 C22.9003706,19.6532176 23.3127824,19.2396882 23.8235471,19.2396882 L23.8235471,19.2396882 Z M23.8235471,7.89333529 C24.3343118,7.89333529 24.7500765,8.30686471 24.7500765,8.81762941 C24.7500765,9.32839412 24.3343118,9.74192353 23.8235471,9.74192353 C23.3127824,9.74192353 22.9003706,9.32839412 22.9003706,8.81762941 C22.9003706,8.30686471 23.3127824,7.89333529 23.8235471,7.89333529 L23.8235471,7.89333529 Z M26.2209,16.4511588 C26.7316647,16.4511588 27.1451941,16.8646882 27.1451941,17.3754529 C27.1451941,17.8851 26.7316647,18.2997471 26.2209,18.2997471 C25.7101353,18.2997471 25.2966059,17.8851 25.2966059,17.3754529 C25.2966059,16.8646882 25.7101353,16.4511588 26.2209,16.4511588 L26.2209,16.4511588 Z M26.2209,10.6561588 C26.7316647,10.6561588 27.1451941,11.0708059 27.1451941,11.5804529 C27.1451941,12.0912176 26.7316647,12.5058647 26.2209,12.5058647 C25.7101353,12.5058647 25.2966059,12.0912176 25.2966059,11.5804529 C25.2966059,11.0708059 25.7101353,10.6561588 26.2209,10.6561588 L26.2209,10.6561588 Z M28.3835471,13.6089824 C28.8954294,13.6089824 29.3100765,14.0225118 29.3100765,14.5332765 C29.3100765,15.0440412 28.8954294,15.4575706 28.3835471,15.4575706 C27.8727824,15.4575706 27.4603706,15.0440412 27.4603706,14.5332765 C27.4603706,14.0225118 27.8727824,13.6089824 28.3835471,13.6089824 L28.3835471,13.6089824 Z M34.5943118,10.6561588 C35.1039588,10.6561588 35.5174882,11.0708059 35.5174882,11.5804529 C35.5174882,12.0912176 35.1039588,12.5058647 34.5943118,12.5058647 C34.0835471,12.5058647 33.6689,12.0912176 33.6689,11.5804529 C33.6689,11.0708059 34.0835471,10.6561588 34.5943118,10.6561588 L34.5943118,10.6561588 Z M36.7580765,13.6089824 C37.2688412,13.6089824 37.6823706,14.0225118 37.6823706,14.5332765 C37.6823706,15.0440412 37.2688412,15.4575706 36.7580765,15.4575706 C36.2473118,15.4575706 35.8337824,15.0440412 35.8337824,14.5332765 C35.8337824,14.0225118 36.2473118,13.6089824 36.7580765,13.6089824 L36.7580765,13.6089824 Z M34.1740765,26.9525706 L34.1740765,22.0706882 L40.0931353,22.0706882 C40.2809,22.0706882 40.4340176,21.9175706 40.4340176,21.7298059 L40.4340176,7.3401 C40.4340176,7.15345294 40.2809,7.00033529 40.0931353,7.00033529 L11.3405471,7.00033529 C11.1527824,7.00033529 10.9996647,7.15345294 10.9996647,7.3401 L10.9996647,21.7298059 C10.9996647,21.9175706 11.1527824,22.0706882 11.3405471,22.0706882 L17.1657235,22.0706882 L17.1657235,26.9525706 L17.1657235,32.6413941 L17.1657235,37.7076882 L14.4330765,37.7076882 L14.4330765,35.2544529 C14.4330765,34.6073353 13.9066647,34.0809235 13.2584294,34.0809235 L12.3330176,34.0809235 C11.6847824,34.0809235 11.1594882,34.6073353 11.1594882,35.2544529 L11.1594882,43.5641588 C11.1594882,44.2123941 11.6847824,44.7365706 12.3330176,44.7365706 L13.2584294,44.7365706 C13.9066647,44.7365706 14.4330765,44.2123941 14.4330765,43.5641588 L14.4330765,41.1098059 L37.1615471,41.1098059 L37.1615471,43.5641588 C37.1615471,44.2123941 37.6868412,44.7365706 38.3339588,44.7365706 L39.2604882,44.7365706 C39.9076059,44.7365706 40.4340176,44.2123941 40.4340176,43.5641588 L40.4340176,35.2544529 C40.4340176,34.6073353 39.9076059,34.0809235 39.2604882,34.0809235 L38.3339588,34.0809235 C37.6868412,34.0809235 37.1615471,34.6073353 37.1615471,35.2544529 L37.1615471,37.7076882 L34.1740765,37.7076882 L34.1740765,32.6413941 L34.1740765,26.9525706 Z"></path></g></svg>