<svg xmlns="http://www.w3.org/2000/svg" xmlns:xlink="http://www.w3.org/1999/xlink" width="52px" height="52px" viewBox="0 0 52 52" version="1.1"><title>Plumbing, Pipe and Conduit</title><g stroke="none" stroke-width="1" fill="currentColor" fill-rule="evenodd"><path d="M35.385437,14.711363 L34.5409926,14.711363 L32.7521778,14.711363 C32.5199556,14.711363 32.3299556,14.901363 32.3299556,15.1335852 L32.3299556,16.0399556 C32.3299556,16.2721778 32.1399556,16.4621778 31.9077333,16.4621778 L27.6278074,16.4621778 C27.3955852,16.4621778 27.2055852,16.2721778 27.2055852,16.0399556 L27.2055852,15.1335852 C27.2055852,14.901363 27.0155852,14.711363 26.783363,14.711363 L24.4470667,14.711363 C24.2148444,14.711363 24.023437,14.521363 24.023437,14.2891407 L24.023437,11.253363 C24.023437,11.0211407 24.2148444,10.8311407 24.4470667,10.8311407 L28.1724741,10.8311407 C28.4806963,10.8311407 28.7312148,10.5806222 28.7312148,10.2724 L28.7312148,8.55958519 C28.7312148,8.24995556 28.4806963,7.99943704 28.1724741,7.99943704 L16.9948444,7.99943704 C16.6852148,7.99943704 16.4346963,8.24995556 16.4346963,8.55958519 L16.4346963,10.2724 C16.4346963,10.5806222 16.6852148,10.8311407 16.9948444,10.8311407 L20.7864,10.8311407 C21.0186222,10.8311407 21.2086222,11.0211407 21.2086222,11.253363 L21.2086222,14.2891407 C21.2086222,14.521363 21.0186222,14.711363 20.7864,14.711363 L18.3107704,14.711363 C18.0785481,14.711363 17.8885481,14.901363 17.8885481,15.1335852 L17.8885481,16.0399556 C17.8885481,16.2721778 17.6999556,16.4621778 17.4677333,16.4621778 L11.7452148,16.4621778 C9.41173333,16.4621778 7.52017778,18.3551407 7.52017778,20.6886222 L7.52017778,21.5189926 L7.52017778,22.0819556 L7.52017778,22.9264 L7.52017778,23.6835852 C7.52017778,23.9144 7.40336296,24.1058074 7.26121481,24.1058074 C7.11625185,24.1058074 6.99943704,24.2958074 6.99943704,24.5280296 L6.99943704,27.7861778 C6.99943704,28.0915852 7.24854815,28.3392889 7.55395556,28.3392889 L13.3961037,28.3392889 C13.7015111,28.3392889 13.9492148,28.0915852 13.9492148,27.7861778 L13.9492148,24.5280296 C13.9492148,24.2958074 13.8324,24.1058074 13.6888444,24.1058074 C13.5452889,24.1058074 13.4284741,23.9144 13.4284741,23.6835852 L13.4284741,22.9264 C13.4284741,22.6941778 13.6184741,22.5041778 13.8506963,22.5041778 L17.4677333,22.5041778 C17.6999556,22.5041778 17.8885481,22.6941778 17.8885481,22.9264 L17.8885481,23.6835852 C17.8885481,23.9144 18.0785481,24.1058074 18.3107704,24.1058074 L26.783363,24.1058074 C27.0155852,24.1058074 27.2055852,23.9144 27.2055852,23.6835852 L27.2055852,22.9264 C27.2055852,22.6941778 27.3955852,22.5041778 27.6278074,22.5041778 L31.9077333,22.5041778 C32.1399556,22.5041778 32.3299556,22.6941778 32.3299556,22.9264 L32.3299556,23.6835852 C32.3299556,23.9144 32.5199556,24.1058074 32.7521778,24.1058074 L34.5409926,24.1058074 C34.7732148,24.1058074 34.9632148,24.2958074 34.9632148,24.5280296 L34.9632148,26.315437 C34.9632148,26.5476593 35.1532148,26.7390667 35.385437,26.7390667 L36.2256593,26.7390667 C36.4578815,26.7390667 36.6464741,26.9290667 36.6464741,27.1612889 L36.6464741,41.615363 C36.6464741,41.8475852 36.8364741,42.0375852 37.0686963,42.0375852 L42.2662519,42.0375852 C42.4984741,42.0375852 42.6884741,41.8475852 42.6884741,41.615363 L42.6884741,27.1612889 C42.6884741,26.9290667 42.8784741,26.7390667 43.1106963,26.7390667 L43.935437,26.7390667 C44.1676593,26.7390667 44.3576593,26.5476593 44.3576593,26.315437 L44.3576593,24.5280296 L44.3576593,23.6835852 L44.3576593,18.9349926 C44.3576593,16.6029185 42.4661037,14.711363 40.1340296,14.711363 L35.385437,14.711363 Z"></path></g></svg>