<svg xmlns="http://www.w3.org/2000/svg" xmlns:xlink="http://www.w3.org/1999/xlink" width="52px" height="52px" viewBox="0 0 52 52" version="1.1"><title>Pumps and Accessories</title><g stroke="none" stroke-width="1" fill="currentColor" fill-rule="evenodd"><path d="M47.8092878,29.7129756 L45.4701659,29.7129756 L45.5099707,15.8257561 C45.5099707,15.6325854 45.3530927,15.4745366 45.1587512,15.4745366 L32.1074341,15.4745366 C31.9130927,15.4745366 31.7562146,15.6325854 31.7562146,15.8257561 L31.7562146,21.2837073 L25.4120195,21.272 L25.4120195,17.9319024 L27.0381659,17.8827317 C27.1294829,17.8827317 27.203239,17.8089756 27.203239,17.7176585 L27.2161171,11.1650732 C27.2161171,11.0737561 27.142361,11 27.0510439,11 L20.4949463,11 C20.4036293,11 20.3298732,11.0737561 20.3298732,11.1650732 L20.3474341,17.7176585 C20.3474341,17.8089756 20.4211902,17.8827317 20.513678,17.8827317 L22.1901659,17.9319024 L22.1901659,21.2485854 L13.9962146,21.2462439 C8.85319024,21.2462439 5.33514146,24.121561 5.33514146,29.9073171 L5.33514146,31.8097561 C5.33514146,32.9254634 4.8563122,33.4054634 3.87523902,33.4054634 L0.000117073171,33.4054634 L0.000117073171,36.92 L3.96070244,36.92 C6.80323902,36.92 8.82040976,34.8302439 8.82040976,32.0684878 C8.82040976,31.0300488 8.85787317,30.1496585 8.85787317,29.2001951 C8.85787317,26.3541463 10.211239,24.7701463 13.9060683,24.7701463 L15.9489951,24.7701463 L15.975922,29.7129756 L13.7363122,29.7129756 C13.6449951,29.7129756 13.571239,29.785561 13.571239,29.8780488 L13.571239,33.5354146 C13.571239,33.6267317 13.6449951,33.7004878 13.7363122,33.7004878 L23.8128,33.7004878 C23.7975805,33.5061463 23.7835317,33.3118049 23.7835317,33.1139512 C23.7835317,29.0749268 27.0568976,25.8003902 31.0970927,25.8003902 C35.1361171,25.8003902 38.4094829,29.0749268 38.4094829,33.1139512 C38.4094829,33.3118049 38.3954341,33.5061463 38.3790439,33.7004878 L47.8092878,33.7004878 C47.9006049,33.7004878 47.9755317,33.6267317 47.9755317,33.5354146 L47.9755317,29.8780488 C47.9755317,29.785561 47.9006049,29.7129756 47.8092878,29.7129756 M37.2317268,33.1139512 C37.2317268,36.5020488 34.4840195,39.2497561 31.0970927,39.2497561 C27.7078244,39.2497561 24.9612878,36.5020488 24.9612878,33.1139512 C24.9612878,29.7258537 27.7078244,26.9793171 31.0970927,26.9793171 C34.4840195,26.9793171 37.2317268,29.7258537 37.2317268,33.1139512"></path></g></svg>