<svg xmlns="http://www.w3.org/2000/svg" xmlns:xlink="http://www.w3.org/1999/xlink" width="52px" height="52px" viewBox="0 0 52 52" version="1.1"><title>Portable Sanitation Services</title><g stroke="none" stroke-width="1" fill="currentColor" fill-rule="evenodd"><path d="M39.9686167,10.0159667 C40.14945,10.2096333 40.2462833,10.4593 40.2462833,10.7241333 L40.2462833,43.5774667 L40.2462833,43.8166333 L40.2462833,45.8431333 C40.2462833,46.0344667 40.08995,46.1908 39.89745,46.1908 L36.1617833,46.1908 C35.97045,46.1908 35.8141167,46.0344667 35.8141167,45.8431333 L35.8141167,44.8549667 L23.4322833,44.8549667 L23.4322833,45.8396333 C23.4322833,46.0333 23.2747833,46.1908 23.0811167,46.1908 L19.3501167,46.1908 C19.15645,46.1908 18.99895,46.0333 18.99895,45.8396333 L18.99895,43.8166333 L18.99895,43.5774667 L18.99895,10.7241333 C18.99895,10.4593 19.09695,10.2096333 19.2777833,10.0159667 C20.1936167,9.03946667 23.4147833,6.16596667 29.6237833,6.16596667 C35.8327833,6.16596667 39.05395,9.03946667 39.9686167,10.0159667 Z M36.6646167,42.5767 L36.6646167,15.6908667 C36.6646167,13.4310333 34.8247833,11.5900333 32.5637833,11.5900333 L26.6826167,11.5900333 C24.4216167,11.5900333 22.5817833,13.4310333 22.5817833,15.6908667 L22.5817833,42.5767 L23.4567833,42.5767 L23.4567833,15.6908667 C23.4567833,13.9128667 24.90345,12.4650333 26.6826167,12.4650333 L32.5637833,12.4650333 C34.34295,12.4650333 35.7896167,13.9128667 35.7896167,15.6908667 L35.7896167,42.5767 L36.6646167,42.5767 Z M32.6917667,28.56865 C32.8107667,28.56865 32.9076,28.4718167 32.9076,28.3528167 L32.9076,26.5689833 C32.9076,26.45115 32.8107667,26.3543167 32.6917667,26.3543167 L32.2017667,26.3543167 C32.0827667,26.3543167 31.9871,26.45115 31.9871,26.5689833 L31.9871,28.3528167 C31.9871,28.4718167 32.0827667,28.56865 32.2017667,28.56865 L32.6917667,28.56865 Z"></path></g></svg>