<svg xmlns="http://www.w3.org/2000/svg" viewBox="0 0 52 52"><title>
    Storage containers and mobile offices
  </title><g fill="currentColor"><path d="M36.3 26c.3 0 .5-.4.5-.6.1-.3.1-.6-.2-.6-.3 0-.5.4-.5.6-.1.2-.1.6.2.6zM25.8 27.5h-.3l-.1.7h.3c.3 0 .5 0 .6-.3.1-.4-.2-.4-.5-.4zM38.5 23.9c.1 0 .3-.1.3-.3 0-.1-.1-.3-.3-.3-.1 0-.3.1-.3.3 0 .2.2.3.3.3zm-.1-.4h.1c.1 0 .1 0 .1.1s0 .1-.1.1l.1.2-.1-.2h-.1v.2-.4zM34.3 24.7c0-.1-.1-.1-.2-.1-.3 0-.4.2-.5.4h.7c.1-.1.1-.2 0-.3zM34.5 29c-.1.1-.2.1-.3.3 0 .1.1.3.2.3.3 0 .4-.3.5-.6-.1-.1-.3-.1-.4 0z"></path><path d="M51.6 37.2V17.3c0 .1 0-1-.8-2-.7-.8-1.4-.9-1.5-.9H28.2 2.6c-.1 0-.8.1-1.5.9-.9 1.1-.8 2.1-.8 2v19.9s0 .1.1.2.3.1.3.1h50.5s.2 0 .3-.1c.2-.1.1-.2.1-.2zm-31.7-20h.4v5h-.4v-5zm-5.9 0h.4v5H14v-5zM4 36.6h-.4V17.2H4v19.4zm5.2 0h-.4V17.2h.4v19.4zm5.2 0H14v-5.4h.4v5.4zm-1.3-10.1c0-1.9 1.5-3.2 3.1-3.2.6 0 1.2.2 1.8.5-.6.5-1.3 1.4-1.3 2.7 0 1.9 1.6 3.5 3.5 3.5h-3.5c-2 .1-3.6-1.5-3.6-3.5zm7.2 10.1h-.4v-5.4h.4v5.4zm0-6.7c-.6 0-1.2-.2-1.8-.5.6-.5 1.3-1.4 1.3-2.7 0-1.9-1.6-3.5-3.5-3.5h3.5c1.9 0 3.5 1.6 3.5 3.5s-1.4 3.2-3 3.2zm17.9-6.2c0-.2.1-.3.3-.3.2 0 .3.1.3.3 0 .2-.1.3-.3.3-.2 0-.3-.2-.3-.3zm-.6-6.5h.4v5h-.4v-5zm-2.4 8.1c.1-.5.5-1.1 1.1-1.1.3 0 .5.1.6.3l.2-1.2h.9l-.6 3h-.8V26c-.2.2-.5.4-.8.4-.5 0-.7-.6-.6-1.1zm-1-1.1c.8 0 1 .5.8 1.3h-1.5c-.1.3 0 .5.2.5s.4-.1.4-.3h.9c-.1.3-.3.5-.5.6-.2.1-.4.2-.7.2-.8 0-1.1-.4-.9-1.2.1-.7.6-1.1 1.3-1.1zm-1.2.1l-.1.5h-.5l-.2.8s-.1.3.1.3h.3l-.1.5h-.4c-.5 0-.8-.1-.7-.7l.2-.9h-.4l.1-.5h.4l.1-.3.8-.3-.1.6h.5zm-1.4-7.1h.4v5h-.4v-5zm-1 6.2h.8l-.1.6h-.8l.1-.6zm-.2.9h.8l-.4 2.1H30l.4-2.1zm-2.6 0h.8v.2c.2-.2.4-.3.7-.3.4 0 .7.3.6.7l-.3 1.4h-.8l.3-1.2c0-.2 0-.4-.2-.4-.4 0-.4.4-.4.4l-.2 1.2h-.8l.3-1.5v-.5zm-1.9-7.1h.4v5h-.4v-5zm-1.5 8.1l.4-1.9h.8l-.4 1.8c-.1.4.1.6.5.6s.6-.2.7-.6l.4-1.8h.8l-.4 1.9c-.2.8-.9 1.2-1.7 1.2-.6-.1-1.2-.4-1.1-1.2zm1.9 11.3h-.4v-5.4h.4v5.4zm.5-7.4v.7h-.9v-.6c0-.4.1-.5-.4-.5h-.3l-.2 1.1h-.8l.6-3h1.4c.5 0 1.1.1 1 .8-.1.4-.5.7-.9.7.5 0 .5.3.5.8zm1.2.3c.2 0 .4-.1.4-.3h.7c-.1.3-.3.5-.5.6-.2.1-.4.2-.6.2-.8 0-1.1-.4-.9-1.2.1-.7.7-1 1.3-1 .8 0 1 .5.8 1.3h-1.5c0 .2 0 .4.3.4zm2.7.4l.3-1.2c0-.2 0-.4-.2-.4-.4 0-.4.4-.4.4l-.4 1.2h-.8l.3-1.5c0-.2.1-.3.1-.5h.8v.2c.2-.2.4-.3.7-.3.4 0 .7.3.6.7l-.3 1.4h-.7zm1.3 6.7h-.4v-5.4h.4v5.4zm1.2-6.7h-.4c-.5 0-.8-.1-.7-.7l.2-.9h-.4l.1-.5h.4l.1-.3.8-.3-.1.6h.5l-.1.5h-.5l-.2.8s-.1.3.1.3h.3l-.1.5zm2.3-.4v.4h-.7v-.3c-.2.2-.4.4-.8.4-.5 0-.7-.3-.6-.7.1-.5.6-.7 1.3-.7h.3c0-.2.1-.4-.2-.4-.2 0-.3.2-.3.3h-.7c.1-.3.2-.5.5-.6.2-.1.5-.1.7-.1.4 0 .9.2.8.6l-.3 1.1zm.3.4l.6-3h.8l-.6 3h-.8zm2.2 6.7h-.4v-5.4h.4v5.4zm1.1-8.1h-.7v-.2s-.1-.1-.2-.1-.2.1-.2.2.3.1.7.3c.2.1.4.2.3.6-.1.5-.7.7-1.1.7-.5 0-1-.1-.8-.7h.7v.2s.1.1.2.1.3-.1.3-.2c.1-.4-1.2-.1-1-.9.1-.5.7-.7 1.1-.7.3 0 .8.1.7.7zm4 8.1h-.4V17.2h.4v19.4zm5 0h-.4V17.2h.4v19.4z"></path><path d="M38.6 23.6c0-.1 0-.1 0 0l-.2-.1v.1h.1c0 .1.1.1.1 0zM28.5 28.3c0-.1-.1-.1-.2-.1-.3 0-.4.2-.5.4h.7c.1-.1.1-.2 0-.3z"></path></g></svg>