<svg xmlns="http://www.w3.org/2000/svg" xmlns:xlink="http://www.w3.org/1999/xlink" width="52px" height="52px" viewBox="0 0 52 52" version="1.1"><title>Surface Preparation</title><g stroke="none" stroke-width="1" fill="currentColor" fill-rule="evenodd"><path d="M16.4955355,33.0686581 C16.5071484,34.7223355 18.1190194,36.5838839 20.2244387,36.5838839 C20.2627613,36.5838839 20.4532129,36.5838839 20.7005677,36.5850452 L20.7005677,38.9041419 L20.1536,38.8913677 C17.3281806,38.8913677 14.0637935,36.2877548 14.0637935,33.2742065 C14.0637935,30.2583355 14.1880516,10.7312387 14.1880516,10.7312387 C14.1892129,10.5233677 14.0208258,10.3538194 13.8141161,10.3526581 L9.91101935,10.3213032 C8.84379355,10.3120129 7.98792258,9.43756129 8.00069677,8.37033548 C8.00418065,8.1647871 8.17256774,7.99756129 8.38043871,7.99988387 L22.4425032,8.02427097 C22.6503742,8.02659355 22.8164387,8.19614194 22.8141161,8.40517419 L22.8117935,8.63162581 C22.7990194,9.70465806 21.925729,10.3782065 20.8747613,10.3782065 C19.8226323,10.3782065 16.8973419,10.3874968 16.8973419,10.3874968 C16.6883097,10.3851742 16.5187613,10.5524 16.5187613,10.7614323 L16.4955355,33.0686581 Z M36.669471,22.9254839 C40.5946323,23.4016129 43.6383742,26.7391613 43.6383742,30.7932258 C43.6383742,34.7474194 40.7409548,38.0164516 36.9551484,38.6168387 L37.0956645,36.2640645 C39.5483097,35.6427742 41.3703742,33.4386452 41.3703742,30.7932258 C41.3703742,27.9480645 39.2649548,25.6150323 36.5324387,25.2132258 L35.5418581,41.7592903 C35.5418581,41.9172258 35.4501161,42.0577419 35.3003097,42.1111613 C34.6476645,42.3434194 32.6107613,42.9287097 28.7436645,42.9449677 C24.877729,42.9287097 22.8419871,42.3434194 22.1858581,42.1111613 C22.0372129,42.0577419 21.945471,41.9172258 21.945471,41.7592903 L20.7841806,22.3564516 C20.7795355,22.166 20.6239226,22.0115484 20.433471,22.0115484 L20.2453419,22.0115484 C20.0525677,22.0115484 19.8969548,21.8547742 19.8969548,21.662 L19.8969548,15.4746452 C19.8969548,15.3155484 19.9886968,15.1761935 20.1385032,15.1227742 C21.0292129,14.8057419 24.3226323,13.7547742 28.7436645,13.7547742 C33.1658581,13.7547742 36.4569548,14.8057419 37.3511484,15.1227742 C37.5009548,15.1761935 37.5915355,15.3155484 37.5915355,15.4746452 L37.5915355,21.662 C37.5915355,21.8547742 37.4347613,22.0115484 37.2419871,22.0115484 L37.0561806,22.0115484 C36.8634065,22.0115484 36.7066323,22.166 36.7031484,22.3564516 L36.669471,22.9254839 Z"></path></g></svg>