<svg xmlns="http://www.w3.org/2000/svg" data-name="Layer 1" viewBox="0 0 175.28 84.28"><g id="Layer_2" data-name="Layer 2"><title>Trailers</title><g id="icons"><path d="M47.48,65.65a7.39,7.39,0,1,0,7.38,7.4v0A7.39,7.39,0,0,0,47.48,65.65Zm0,14.36a7,7,0,1,1,7-7,7,7,0,0,1-7,7Z" fill="none"></path><path d="M47.48,66.07a7,7,0,1,0,7,7A7,7,0,0,0,47.48,66.07Zm0,13.12A6.16,6.16,0,1,1,53.63,73a6.16,6.16,0,0,1-6.15,6.19Z" fill="CurrentColor"></path><path d="M58.8,74.05V72.23h-.39v-.38h.4A10.47,10.47,0,0,0,58.43,70l-.38.11-.11-.36.39-.12A12.09,12.09,0,0,0,57.67,68l-.35.18-.18-.34.36-.18A12,12,0,0,0,56.43,66l-.3.25L55.89,66l.3-.25a11.31,11.31,0,0,0-1.28-1.31l-.25.31-.29-.25.25-.3a11.61,11.61,0,0,0-1.54-1.05l-.19.35-.33-.18.19-.35a11.64,11.64,0,0,0-1.62-.7l-.12.38-.37-.11.13-.38a11.27,11.27,0,0,0-1.9-.4v.39h-.38l0-.39H46.72v.4h-.39v-.4a12.57,12.57,0,0,0-1.83.35l.11.38-.36.11-.12-.38a10.45,10.45,0,0,0-1.63.65l.18.36-.34.17-.23-.4a10.83,10.83,0,0,0-1.63,1.06l.25.31-.3.24-.24-.31a11.31,11.31,0,0,0-1.31,1.28l.31.25-.25.3-.3-.26a11.93,11.93,0,0,0-1,1.54l.35.19-.18.34-.35-.2a11.64,11.64,0,0,0-.7,1.62l.38.12-.11.37-.38-.12a11.27,11.27,0,0,0-.4,1.9h.39V72h-.39v1.81h.4v.38h-.4A12.57,12.57,0,0,0,36.6,76l.3,0,.11.37-.38.11a10.45,10.45,0,0,0,.65,1.63l.36-.18.17.34-.35.18A10.35,10.35,0,0,0,38.52,80l.31-.25.24.3-.31.25A12,12,0,0,0,40,81.63l.25-.31.3.25-.26.3a10.41,10.41,0,0,0,1.54,1l.19-.35.33.19-.19.35a11.59,11.59,0,0,0,1.62.69l.12-.38.37.12-.13.38a12.34,12.34,0,0,0,1.9.4l.05-.4h.38v.4h1.81v-.39h.38v.4A10.35,10.35,0,0,0,50.5,84l-.11-.38.37-.11.11.39a12.09,12.09,0,0,0,1.63-.66l-.18-.35.34-.18.18.36A11.74,11.74,0,0,0,54.47,82l-.25-.31.3-.24.25.3a12,12,0,0,0,1.3-1.27l-.31-.26.25-.29.3.25a11.18,11.18,0,0,0,1-1.53l-.35-.2.19-.33.35.19a11.59,11.59,0,0,0,.69-1.62l-.38-.12.12-.36.38.12a12.34,12.34,0,0,0,.4-1.9h-.4V74ZM47.48,80.42A7.39,7.39,0,1,1,54.86,73a7.39,7.39,0,0,1-7.38,7.42Z" fill="CurrentColor"></path><circle cx="47.48" cy="73.04" r="2.88" fill="CurrentColor"></circle><path d="M18.09,65.65a7.39,7.39,0,1,0,7.38,7.4v0A7.39,7.39,0,0,0,18.09,65.65Zm0,14.36a7,7,0,1,1,7-7,7,7,0,0,1-7,7Z" fill="none"></path><path d="M18.09,66.07a7,7,0,1,0,7,7A7,7,0,0,0,18.09,66.07Zm0,13.12a6.14,6.14,0,1,1,.05,0Z" fill="CurrentColor"></path><path d="M29.41,74.05V72.23H29v-.38h.39A11.63,11.63,0,0,0,29.05,70l-.39.11-.1-.36.38-.12A12.09,12.09,0,0,0,28.28,68l-.35.18-.18-.34.36-.18A12,12,0,0,0,27.05,66l-.31.25L26.5,66l.31-.25a11.31,11.31,0,0,0-1.28-1.31l-.26.31L25,64.5l.25-.3a11.51,11.51,0,0,0-1.53-1.05l-.19.35-.34-.18.19-.35a11.64,11.64,0,0,0-1.62-.7l-.12.38-.36-.11.12-.38a11.27,11.27,0,0,0-1.9-.4v.39h-.38v-.39H17.3v.4h-.38v-.4a12.57,12.57,0,0,0-1.83.35l.12.38-.37.11-.11-.38a11,11,0,0,0-1.64.65l.19.36-.35.17-.21-.4a10.74,10.74,0,0,0-1.62,1.06l.25.31-.3.24-.25-.31a11.4,11.4,0,0,0-1.3,1.3l.3.25-.24.3-.31-.26A11.61,11.61,0,0,0,8.2,67.43l.35.19L8.37,68,8,67.76a11.59,11.59,0,0,0-.69,1.62l.38.12-.12.37-.38-.12a11.27,11.27,0,0,0-.4,1.9h.39V72H6.79v1.81h.4v.38H6.8a11.34,11.34,0,0,0,.34,1.83l.37,0,.11.37-.38.11a13.5,13.5,0,0,0,.65,1.63l.36-.18.17.34-.35.18A10.89,10.89,0,0,0,9.13,80l.31-.25.24.3-.31.25a12.08,12.08,0,0,0,1.28,1.3l.25-.31.3.25-.26.3a11.93,11.93,0,0,0,1.54,1l.19-.35.34.19-.19.35a12,12,0,0,0,1.61.69l.13-.38.36.12-.12.38a11.27,11.27,0,0,0,1.9.4v-.4h.38v.4h1.81v-.39h.38v.4A10.44,10.44,0,0,0,21.11,84L21,83.61l.37-.11.11.39a12.09,12.09,0,0,0,1.63-.66l-.18-.35.34-.18.19.36A12.54,12.54,0,0,0,25.08,82l-.25-.31.3-.24.25.3a11.14,11.14,0,0,0,1.3-1.27l-.3-.26.24-.29.31.25A10.77,10.77,0,0,0,28,78.65l-.35-.2.18-.33.35.19a11.59,11.59,0,0,0,.69-1.62l-.38-.12.12-.36.38.12a12.34,12.34,0,0,0,.4-1.9H29V74ZM18.09,80.42A7.39,7.39,0,1,1,25.47,73a7.39,7.39,0,0,1-7.38,7.42Z" fill="CurrentColor"></path><circle cx="18.09" cy="73.04" r="2.88" fill="CurrentColor"></circle><path d="M0,0V73H3.65a14.61,14.61,0,0,1,29.22,0h0a14.61,14.61,0,1,1,29.21-.76c0,.25,0,.51,0,.76h40.17V51.12h29.21v3.65h14.61V51.12h29.21V0Z" fill="CurrentColor"></path></g></g></svg>