<svg xmlns="http://www.w3.org/2000/svg" xmlns:xlink="http://www.w3.org/1999/xlink" width="52px" height="52px" viewBox="0 0 52 52" version="1.1"><title>Trench Safety and Shoring</title><g stroke="none" stroke-width="1" fill="currentColor" fill-rule="evenodd"><path d="M38.5785919,17.1346026 L38.5785919,21.3507175 C38.5785919,25.4775128 35.2341918,28.8219129 31.1085271,28.8219129 L28.9162378,28.8219129 L29.9948577,17.1040756 C30.0118172,16.9299588 30.1565376,16.7976752 30.3295239,16.7976752 L38.2416645,16.7976752 C38.4282182,16.7976752 38.5785919,16.9491795 38.5785919,17.1346026 M46.3754083,34.0194137 L41.0320564,34.0194137 L41.0320564,31.2041479 L48.627621,31.2041479 C48.825481,31.2041479 48.9882916,31.0435986 48.9882916,30.8434773 L48.9882916,21.5237037 C48.9882916,21.3247131 48.825481,21.1630331 48.627621,21.1630331 L41.0716285,21.1630331 L41.0716285,14.7761108 C41.0716285,14.5771202 40.9099485,14.4154402 40.7098272,14.4154402 L40.6476426,14.4154402 L28.8823189,14.4154402 C28.2989145,14.4154402 27.8104828,14.8575161 27.7539514,15.43979 L26.6708089,26.5810065 L26.658372,26.7019838 L22.8210177,13.3006402 C22.6762973,12.9535371 22.3529374,12.7104519 21.9786993,12.6674881 L6.58971014,11.0077249 C5.9452517,10.9319728 5.27252754,11.4226657 5.30757704,12.070516 L6.06622899,28.6330979 L3.79705691,30.0305551 C2.91968893,30.5721263 2.24696477,31.4325349 2.06154164,32.4478396 C1.64886211,34.7011829 3.36741795,36.6639545 5.54613972,36.6639545 L13.9308832,36.6639545 C14.3311258,36.6639545 14.5572516,36.2049192 14.3141664,35.8883431 L13.0128126,35.0437634 C10.7899963,33.6033423 9.16528263,31.4167061 8.42245949,28.8874894 C8.31278849,28.5143819 8.28113088,28.1243149 8.29695968,27.7365092 L8.85209844,14.6155615 L18.4217409,16.7264456 C18.7586683,16.7976752 19.0379336,17.0305847 19.1690866,17.3494221 L23.0957606,30.5585588 C23.2563098,30.9497564 23.6373318,31.2041479 24.060187,31.2041479 L26.5690523,31.2041479 C26.5803586,31.2041479 26.5894037,31.200756 26.60071,31.1996253 C26.6041018,31.2018866 26.6063631,31.2041479 26.6108856,31.2041479 L26.6459351,31.2041479 L26.6504576,31.2041479 L33.744023,31.2041479 L33.744023,34.0194137 L25.1580276,34.0194137 C23.2664855,34.0194137 21.5705422,35.4360916 21.4710469,37.3242418 C21.3658984,39.340153 22.9679995,41.0055693 24.9601675,41.0055693 L46.5065613,41.0055693 C48.6615398,41.0055693 50.3620056,39.0541039 49.9334973,36.8211119 C49.6157906,35.1613488 48.0668291,34.0194137 46.3754083,34.0194137"></path></g></svg>