<svg xmlns="http://www.w3.org/2000/svg" data-name="Layer 1" viewBox="0 0 181.93 97.26"><g id="Layer_2" data-name="Layer 2"><title>Trucks</title><g id="icons"><path d="M128.36,73.09a14.16,14.16,0,1,0,11.56-11.55A14.15,14.15,0,0,0,128.36,73.09Zm.79,4.66a13.36,13.36,0,1,1,15.42,10.91,13.19,13.19,0,0,1-4.52,0A13.36,13.36,0,0,1,129.15,77.75Z" transform="translate(0.01)" fill="none"></path><path d="M129.15,73.22a13.36,13.36,0,1,0,15.43-10.9,13.19,13.19,0,0,0-4.52,0A13.36,13.36,0,0,0,129.15,73.22Zm1.59,4.58a11.8,11.8,0,1,1,13.88,9.26,12,12,0,0,1-4.62,0,11.83,11.83,0,0,1-9.26-9.26Z" transform="translate(0.01)" fill="CurrentColor"></path><path d="M121.39,77.35l.07.72-.75.09a22.64,22.64,0,0,0,.76,3.64l.73-.24.22.7-.73.23a20.72,20.72,0,0,0,1.34,3.1l.66-.36.36.64-.67.37a23.41,23.41,0,0,0,2,2.94l.59-.49.47.56-.59.49a22.25,22.25,0,0,0,2.5,2.45l.48-.59.57.46-.48.59a21.65,21.65,0,0,0,3.11,2l.35-.68.66.33-.35.68a20.68,20.68,0,0,0,3.13,1.26l.21-.74.7.21-.21.73a21,21,0,0,0,3.5.66l.07-.76.73.07-.07.76c.52,0,1,0,1.56,0a16.4,16.4,0,0,0,1.94-.08l-.08-.76.73-.08.08.76a21.63,21.63,0,0,0,3.64-.77l-.24-.73.7-.22.24.73a21.63,21.63,0,0,0,3.09-1.33l-.36-.67.64-.35.37.67a21.74,21.74,0,0,0,2.94-2l-.49-.58.57-.47.48.58A21.8,21.8,0,0,0,159,89.46l-.59-.48.46-.57.6.48a22.65,22.65,0,0,0,2-3.12l-.68-.35.33-.65.68.35A20.75,20.75,0,0,0,163.1,82l-.74-.22.21-.7.73.22a20.89,20.89,0,0,0,.66-3.51l-.75-.06.06-.73.76.06c0-.51.05-1,.05-1.56a16.15,16.15,0,0,0-.08-1.93l-.76.08-.08-.73.76-.08a21.6,21.6,0,0,0-.76-3.64l-.73.23-.23-.7.73-.23a21.75,21.75,0,0,0-1.33-3.1l-.67.37-.35-.65.67-.36a20.86,20.86,0,0,0-2-2.94l-.58.48-.47-.56.58-.49a22.16,22.16,0,0,0-2.49-2.45l-.48.59-.57-.46.48-.59a22.65,22.65,0,0,0-3.12-2l-.35.68-.65-.34L152,56a23.47,23.47,0,0,0-3.13-1.25l-.21.73-.71-.21.22-.73a23.21,23.21,0,0,0-3.5-.66l-.07.76-.73-.07.07-.75c-.52,0-1-.06-1.57-.06a14.37,14.37,0,0,0-1.93.09l.08.75-.73.08-.08-.76a21.63,21.63,0,0,0-3.64.77l.23.73-.69.22-.24-.73a21.75,21.75,0,0,0-3.1,1.33l.37.67-.65.35-.36-.67a22.71,22.71,0,0,0-2.94,2l.48.59-.56.47-.49-.59a22.25,22.25,0,0,0-2.45,2.5l.59.47-.46.57-.59-.47a22.55,22.55,0,0,0-2,3.11l.68.35-.34.65-.68-.35A21.67,21.67,0,0,0,121.53,69l.73.22-.2.7-.74-.21a23.21,23.21,0,0,0-.66,3.5l.76.07-.06.73-.76-.07q-.06.78-.06,1.56a13.93,13.93,0,0,0,.09,1.94Zm7,.54A14.16,14.16,0,1,1,140,89.44a14.15,14.15,0,0,1-11.56-11.55Z" transform="translate(0.01)" fill="#CurrentColor"></path><circle cx="142.32" cy="75.49" r="5.51" fill="#CurrentColor"></circle><path d="M17.53,73.09A14.16,14.16,0,1,0,29.09,61.54,14.15,14.15,0,0,0,17.53,73.09Zm.79,4.66A13.36,13.36,0,1,1,33.74,88.66a13.19,13.19,0,0,1-4.52,0A13.36,13.36,0,0,1,18.32,77.75Z" transform="translate(0.01)" fill="none"></path><path d="M18.32,73.22a13.36,13.36,0,1,0,10.9-10.9A13.36,13.36,0,0,0,18.32,73.22Zm1.59,4.58a11.8,11.8,0,1,1,13.88,9.26,12,12,0,0,1-4.62,0A11.83,11.83,0,0,1,19.91,77.8Z" transform="translate(0.01)" fill="#CurrentColor"></path><path d="M10.55,77.35l.08.72-.76.09a21.63,21.63,0,0,0,.77,3.64l.73-.24.22.7-.73.23a21.75,21.75,0,0,0,1.33,3.1l.67-.36.35.64-.67.37a23.41,23.41,0,0,0,2,2.94l.59-.49.47.56-.59.49a22.25,22.25,0,0,0,2.5,2.45L18,91.6l.57.46-.47.59a20.82,20.82,0,0,0,3.11,2l.35-.68.65.33-.35.68A22.08,22.08,0,0,0,25,96.28l.22-.74.7.21-.21.73a21,21,0,0,0,3.5.66l.07-.76.73.07-.07.76c.52,0,1,.05,1.56.05a16.4,16.4,0,0,0,1.94-.08l-.08-.76.73-.08.08.76a21.63,21.63,0,0,0,3.64-.77l-.24-.73.7-.22.24.73a21.63,21.63,0,0,0,3.09-1.33l-.36-.67.64-.35.37.67a21.74,21.74,0,0,0,2.94-2l-.49-.58.56-.47.49.58a22.16,22.16,0,0,0,2.45-2.49L47.59,89l.46-.57.59.48a21.21,21.21,0,0,0,2-3.12L50,85.42l.33-.65.68.35A20.52,20.52,0,0,0,52.26,82l-.73-.22.21-.7.73.22a20.89,20.89,0,0,0,.66-3.51l-.76-.06.07-.73.76.06V75.5a16.15,16.15,0,0,0-.08-1.93l-.76.08-.08-.73.76-.08a21.63,21.63,0,0,0-.77-3.64l-.72.23-.23-.7.73-.23a21.75,21.75,0,0,0-1.33-3.1l-.67.37-.35-.65.67-.36a20.86,20.86,0,0,0-2-2.94l-.58.48-.47-.56.58-.49a22.16,22.16,0,0,0-2.49-2.45l-.48.59-.57-.46.48-.59a22.65,22.65,0,0,0-3.12-2l-.35.68-.65-.34.35-.68A21.68,21.68,0,0,0,38,54.71l-.22.73-.7-.21.22-.73a23.11,23.11,0,0,0-3.51-.66l-.06.76L33,54.53l.06-.75q-.77-.06-1.56-.06a13.72,13.72,0,0,0-1.93.09l.08.75-.73.08-.08-.76a21.63,21.63,0,0,0-3.64.77l.23.73-.7.22-.23-.73a21.75,21.75,0,0,0-3.1,1.33l.37.67-.65.35-.36-.67a23.52,23.52,0,0,0-3,2l.49.59-.56.47L17.23,59a22.25,22.25,0,0,0-2.45,2.5l.59.47-.46.57-.59-.47a22.55,22.55,0,0,0-2,3.11l.68.35-.34.65L12,65.86A23.31,23.31,0,0,0,10.7,69l.73.22-.21.7-.73-.21a23.21,23.21,0,0,0-.66,3.5l.76.07-.07.73-.75-.07q-.06.78-.06,1.56a13.93,13.93,0,0,0,.09,1.94Zm7,.54A14.15,14.15,0,1,1,33.89,89.44a14.32,14.32,0,0,1-4.8,0A14.17,14.17,0,0,1,17.53,77.89Z" transform="translate(0.01)" fill="#CurrentColor"></path><circle cx="31.49" cy="75.49" r="5.51" fill="#CurrentColor"></circle><path d="M105.36,0H66.59L35.27,30.94c-1.23,1.56-4.56,2.58-9,3.28l-14,2.25c-3.84.62-6.49,1.88-8.3,3.74C.81,43.49.19,48.66.13,55.54L0,67.53c-.07,2.77.21,8,.21,8s5.24-.13,6.53-.06a24.77,24.77,0,0,1,49.54,0h61.26a24.79,24.79,0,0,1,49.58,0v0h14.8V54s-4.13-.11-5.14-.08c0-5.39-.08-10.75-.12-16.11V35.05H108.13V0h-2.77ZM88.23,6.88h1.64V33.42a1.65,1.65,0,0,1-1.63,1.64h-41c-3.31,0-2.56-3.5-1.9-4.42l23.5-23.8C72,6.68,85,6.87,88.23,6.88Zm63.93,68.65a9.84,9.84,0,0,1-9.86,9.82h-.08a10,10,0,0,1-9.75-9.59A9.85,9.85,0,1,1,152.15,75C152.16,75.14,152.16,75.34,152.16,75.53ZM31.5,65.67a9.84,9.84,0,1,1-9.86,9.86,9.85,9.85,0,0,1,9.86-9.86Z" transform="translate(0.01)" fill="#CurrentColor" fill-rule="evenodd"></path></g></g></svg>