<svg xmlns="http://www.w3.org/2000/svg" xmlns:xlink="http://www.w3.org/1999/xlink" width="52px" height="52px" viewBox="0 0 52 52" version="1.1"><title>Welders and Accessories</title><g stroke="none" stroke-width="1" fill="currentColor" fill-rule="evenodd"><path d="M41.0927571,25.6168786 C41.0927571,26.1135929 40.6991857,26.5193786 40.2174,26.5193786 C40.2174,26.5193786 35.7198286,27.1205929 30.1514714,27.1205929 C24.5844714,27.1205929 20.0869,26.5193786 20.0869,26.5193786 C19.6064714,26.5193786 19.2115429,26.1135929 19.2115429,25.6168786 L19.2115429,21.9471643 C19.2115429,21.4490929 19.6037571,21.0446643 20.0869,21.0446643 C20.0869,21.0446643 25.8995429,21.6445214 30.1514714,21.6445214 C34.4047571,21.6445214 40.2174,21.0446643 40.2174,21.0446643 C40.6991857,21.0446643 41.0927571,21.45045 41.0927571,21.9471643 L41.0927571,25.6168786 Z M43.4297571,17.4400929 L43.2411143,17.4400929 L43.2411143,12.1431643 C43.2411143,9.61073571 38.0256143,6.99959286 30.1514714,6.99959286 C22.2800429,6.99959286 17.0631857,9.61073571 17.0631857,12.1431643 L17.0631857,17.4400929 L16.8745429,17.4400929 C16.3927571,17.4400929 16.0005429,17.8431643 16.0005429,18.3425929 L16.0005429,29.22145 C16.0005429,29.7181643 16.3941143,30.12395 16.8745429,30.12395 L17.0659,30.12395 C17.0944,32.7527357 18.1882571,43.6682357 30.1514714,43.6682357 C42.1174,43.6682357 43.2112571,32.7527357 43.2384,30.12395 L43.4297571,30.12395 C43.9101857,30.12395 44.3051143,29.7181643 44.3051143,29.22145 L44.3051143,18.3425929 C44.3051143,17.8445214 43.9101857,17.4400929 43.4297571,17.4400929 L43.4297571,17.4400929 Z"></path></g></svg>